<?xml version="1.0" standalone="no"?>
<!DOCTYPE svg PUBLIC "-//W3C//DTD SVG 20001102//EN"
"http://www.w3.org/TR/2000/CR-SVG-20001102/DTD/svg-20001102.dtd">
<svg width="768" height="157"
	xmlns:sodipodi="http://sodipodi.sourceforge.net/DTD/sodipodi-0.dtd">
<desc>wmf2svg</desc>
<text x="0" y="0" style="font-family:Times; font-style:normal; font-weight:normal; font-size:80.818993; fill:black" transform="matrix(1.000000 -0.000000 0.000000 1.000000 106.890617 62.230625)"
	>2</text>
<text x="0" y="0" style="font-family:Times; font-style:normal; font-weight:normal; font-size:139.795013; fill:black" transform="matrix(1.000000 -0.000000 0.000000 1.000000 0.000000 124.847145)"
	>2</text>
<text x="0" y="0" style="font-family:Times; font-style:normal; font-weight:normal; font-size:139.795013; fill:black" transform="matrix(1.000000 -0.000000 0.000000 1.000000 232.766678 124.847145)"
	>3</text>
<text x="0" y="0" style="font-family:Times; font-style:normal; font-weight:normal; font-size:139.795013; fill:black" transform="matrix(1.000000 -0.000000 0.000000 1.000000 420.020294 124.847145)"
	>6</text>
<text x="0" y="0" style="font-family:Times; font-style:normal; font-weight:normal; font-size:139.795013; fill:black" transform="matrix(1.000000 -0.000000 0.000000 1.000000 568.262756 124.847145)"
	>0</text>
<text x="0" y="0" style="font-family:Times; font-style:italic; font-weight:normal; font-size:139.795013; fill:black" transform="matrix(1.000000 -0.000000 0.000000 1.000000 51.494751 124.847145)"
	>a</text>
<text x="0" y="0" style="font-family:Times; font-style:italic; font-weight:normal; font-size:139.795013; fill:black" transform="matrix(1.000000 -0.000000 0.000000 1.000000 281.140533 124.847145)"
	>a</text>
<text x="0" y="0" style="font-family:Symbol; font-style:normal; font-weight:normal; font-size:139.795013; fill:black" transform="matrix(1.000000 -0.000000 0.000000 1.000000 162.546555 124.847145)"
	>+</text>
<text x="0" y="0" style="font-family:Symbol; font-style:normal; font-weight:normal; font-size:139.795013; fill:black" transform="matrix(1.000000 -0.000000 0.000000 1.000000 349.800171 124.847145)"
	>-</text>
<text x="0" y="0" style="font-family:Symbol; font-style:normal; font-weight:normal; font-size:139.795013; fill:black" transform="matrix(1.000000 -0.000000 0.000000 1.000000 491.800903 124.847145)"
	>=</text>
</svg>
